<?xml version="1.0" encoding="UTF-8"?>
<svg id="Lager_1" xmlns="http://www.w3.org/2000/svg" xmlns:xlink="http://www.w3.org/1999/xlink" version="1.1" viewBox="0 0 40 28">
  <!-- Generator: Adobe Illustrator 29.0.0, SVG Export Plug-In . SVG Version: 2.1.0 Build 186)  -->
  <defs>
    <style>
      .st0 {
        fill: url(#Namnlös_övertoning_10);
      }

      .st0, .st1, .st2, .st3, .st4, .st5, .st6, .st7 {
        isolation: isolate;
      }

      .st0, .st2, .st3 {
        opacity: .9;
      }

      .st8 {
        fill: url(#Namnlös_övertoning_2);
      }

      .st9 {
        fill: #fff;
      }

      .st1 {
        fill: url(#Namnlös_övertoning_3);
        opacity: .6;
      }

      .st2 {
        fill: url(#Namnlös_övertoning_9);
      }

      .st3 {
        fill: url(#Namnlös_övertoning_6);
      }

      .st4 {
        fill: url(#Namnlös_övertoning_5);
      }

      .st4, .st5 {
        opacity: .8;
      }

      .st5 {
        fill: url(#Namnlös_övertoning_4);
      }

      .st6 {
        fill: url(#Namnlös_övertoning_8);
      }

      .st6, .st7 {
        opacity: .7;
      }

      .st7 {
        fill: url(#Namnlös_övertoning_7);
      }

      .st10 {
        fill: url(#Namnlös_övertoning);
      }
    </style>
    <linearGradient id="Namnlös_övertoning" data-name="Namnlös övertoning" x1="-587.6" y1="112" x2="-586.6" y2="112" gradientTransform="translate(7065.5 -891.9) scale(12 8)" gradientUnits="userSpaceOnUse">
      <stop offset="0" stop-color="#2563eb"/>
      <stop offset="1" stop-color="#1d4ed8"/>
    </linearGradient>
    <linearGradient id="Namnlös_övertoning_2" data-name="Namnlös övertoning 2" x1="-587.6" y1="112" x2="-586.6" y2="112" gradientTransform="translate(7065.5 -891.9) scale(12 8)" gradientUnits="userSpaceOnUse">
      <stop offset="0" stop-color="#2563eb"/>
      <stop offset="1" stop-color="#1d4ed8"/>
    </linearGradient>
    <linearGradient id="Namnlös_övertoning_3" data-name="Namnlös övertoning 3" x1="-587.6" y1="112" x2="-586.6" y2="112" gradientTransform="translate(7072.5 -881.9) scale(12 8)" gradientUnits="userSpaceOnUse">
      <stop offset="0" stop-color="#2563eb"/>
      <stop offset="1" stop-color="#1d4ed8"/>
    </linearGradient>
    <linearGradient id="Namnlös_övertoning_4" data-name="Namnlös övertoning 4" x1="-587.6" y1="112" x2="-586.6" y2="112" gradientTransform="translate(7058.5 -881.9) scale(12 8)" gradientUnits="userSpaceOnUse">
      <stop offset="0" stop-color="#2563eb"/>
      <stop offset="1" stop-color="#1d4ed8"/>
    </linearGradient>
    <linearGradient id="Namnlös_övertoning_5" data-name="Namnlös övertoning 5" x1="-587.6" y1="112" x2="-586.6" y2="112" gradientTransform="translate(7058.5 -881.9) scale(12 8)" gradientUnits="userSpaceOnUse">
      <stop offset="0" stop-color="#2563eb"/>
      <stop offset="1" stop-color="#1d4ed8"/>
    </linearGradient>
    <linearGradient id="Namnlös_övertoning_6" data-name="Namnlös övertoning 6" x1="-587.6" y1="112" x2="-586.6" y2="112" gradientTransform="translate(7079.5 -871.9) scale(12 8)" gradientUnits="userSpaceOnUse">
      <stop offset="0" stop-color="#2563eb"/>
      <stop offset="1" stop-color="#1d4ed8"/>
    </linearGradient>
    <linearGradient id="Namnlös_övertoning_7" data-name="Namnlös övertoning 7" x1="-587.6" y1="112" x2="-586.6" y2="112" gradientTransform="translate(7065.5 -871.9) scale(12 8)" gradientUnits="userSpaceOnUse">
      <stop offset="0" stop-color="#2563eb"/>
      <stop offset="1" stop-color="#1d4ed8"/>
    </linearGradient>
    <linearGradient id="Namnlös_övertoning_8" data-name="Namnlös övertoning 8" x1="-587.6" y1="112" x2="-586.6" y2="112" gradientTransform="translate(7065.5 -871.9) scale(12 8)" gradientUnits="userSpaceOnUse">
      <stop offset="0" stop-color="#2563eb"/>
      <stop offset="1" stop-color="#1d4ed8"/>
    </linearGradient>
    <linearGradient id="Namnlös_övertoning_9" data-name="Namnlös övertoning 9" x1="-587.6" y1="112" x2="-586.6" y2="112" gradientTransform="translate(7051.5 -871.9) scale(12 8)" gradientUnits="userSpaceOnUse">
      <stop offset="0" stop-color="#2563eb"/>
      <stop offset="1" stop-color="#1d4ed8"/>
    </linearGradient>
    <linearGradient id="Namnlös_övertoning_10" data-name="Namnlös övertoning 10" x1="-587.6" y1="112" x2="-586.6" y2="112" gradientTransform="translate(7051.5 -871.9) scale(12 8)" gradientUnits="userSpaceOnUse">
      <stop offset="0" stop-color="#2563eb"/>
      <stop offset="1" stop-color="#1d4ed8"/>
    </linearGradient>
  </defs>
  <path class="st9" d="M20,14c0-.6-.4-1-1-1v2c.6,0,1-.4,1-1Z"/>
  <path class="st9" d="M27,24c0-.6-.4-1-1-1v2c.6,0,1-.4,1-1Z"/>
  <path class="st9" d="M13,24c0-.6-.4-1-1-1v2c.6,0,1-.4,1-1Z"/>
  <path class="st10" d="M25,0h-10c-.6,0-1,.4-1,1v6c0,.6.4,1,1,1h10c.6,0,1-.4,1-1V1c0-.6-.4-1-1-1ZM20,5c-.6,0-1-.4-1-1s.4-1,1-1,1,.4,1,1-.4,1-1,1Z"/>
  <circle class="st9" cx="20" cy="4" r="1"/>
  <circle class="st8" cx="20" cy="4" r="1"/>
  <rect class="st1" x="21" y="10" width="12" height="8" rx="1" ry="1"/>
  <path class="st5" d="M7,11v6c0,.6.4,1,1,1h10c.6,0,1-.4,1-1v-2c-.6,0-1-.4-1-1s.4-1,1-1v-2c0-.6-.4-1-1-1h-10c-.6,0-1,.4-1,1Z"/>
  <path class="st9" d="M18,14c0,.6.4,1,1,1v-2c-.6,0-1,.4-1,1Z"/>
  <path class="st4" d="M18,14c0,.6.4,1,1,1v-2c-.6,0-1,.4-1,1Z"/>
  <rect class="st3" x="28" y="20" width="12" height="8" rx="1" ry="1"/>
  <path class="st7" d="M15,28h10c.6,0,1-.4,1-1v-2c-.6,0-1-.4-1-1s.4-1,1-1v-2c0-.6-.4-1-1-1h-10c-.6,0-1,.4-1,1v6c0,.6.4,1,1,1Z"/>
  <path class="st9" d="M25,24c0,.6.4,1,1,1v-2c-.6,0-1,.4-1,1Z"/>
  <path class="st6" d="M25,24c0,.6.4,1,1,1v-2c-.6,0-1,.4-1,1Z"/>
  <path class="st2" d="M1,28h10c.6,0,1-.4,1-1v-2c-.6,0-1-.4-1-1s.4-1,1-1v-2c0-.6-.4-1-1-1H1c-.6,0-1,.4-1,1v6c0,.6.4,1,1,1Z"/>
  <path class="st9" d="M11,24c0,.6.4,1,1,1v-2c-.6,0-1,.4-1,1Z"/>
  <path class="st0" d="M11,24c0,.6.4,1,1,1v-2c-.6,0-1,.4-1,1Z"/>
</svg>